<svg width="776" height="98" xmlns="http://www.w3.org/2000/svg" xmlns:xlink="http://www.w3.org/1999/xlink" xml:space="preserve" overflow="hidden"><defs><clipPath id="clip0"><rect x="252" y="312" width="776" height="98"/></clipPath><clipPath id="clip1"><rect x="252" y="312" width="776" height="98"/></clipPath></defs><g clip-path="url(#clip0)" transform="translate(-252 -312)"><g clip-path="url(#clip1)"><path d="M0 0 19.6 0 19.6 33.9733 0 33.9733Z" stroke="#000000" stroke-width="1.30667" stroke-linecap="butt" stroke-linejoin="miter" stroke-miterlimit="4" stroke-opacity="1" fill="#C5FCFF" fill-rule="nonzero" fill-opacity="1" transform="matrix(1.00657 0 0 1 270.742 349.567)"/><text fill="#000000" fill-opacity="1" font-family="Arial,Arial_MSFontService,sans-serif" font-style="normal" font-variant="normal" font-weight="400" font-stretch="normal" font-size="14" text-anchor="start" direction="ltr" writing-mode="lr-tb" unicode-bidi="normal" text-decoration="none" transform="matrix(1.31525 0 0 1.30667 276.144 373)">0</text><path d="M0 0 19.6 0 19.6 33.9733 0 33.9733Z" stroke="#000000" stroke-width="1.30667" stroke-linecap="butt" stroke-linejoin="miter" stroke-miterlimit="4" stroke-opacity="1" fill="#9FFFAD" fill-rule="nonzero" fill-opacity="1" transform="matrix(1.00657 0 0 1 290.471 349.567)"/><text fill="#000000" fill-opacity="1" font-family="Arial,Arial_MSFontService,sans-serif" font-style="normal" font-variant="normal" font-weight="400" font-stretch="normal" font-size="14" text-anchor="start" direction="ltr" writing-mode="lr-tb" unicode-bidi="normal" text-decoration="none" transform="matrix(1.31525 0 0 1.30667 295.873 373)">0</text><path d="M0 0 19.6 0 19.6 33.9733 0 33.9733Z" stroke="#000000" stroke-width="1.30667" stroke-linecap="butt" stroke-linejoin="miter" stroke-miterlimit="4" stroke-opacity="1" fill="#9FFFAD" fill-rule="nonzero" fill-opacity="1" transform="matrix(1.00657 0 0 1 310.2 349.567)"/><text fill="#000000" fill-opacity="1" font-family="Arial,Arial_MSFontService,sans-serif" font-style="normal" font-variant="normal" font-weight="400" font-stretch="normal" font-size="14" text-anchor="start" direction="ltr" writing-mode="lr-tb" unicode-bidi="normal" text-decoration="none" transform="matrix(1.31525 0 0 1.30667 315.602 373)">1</text><path d="M0 0 19.6 0 19.6 33.9733 0 33.9733Z" stroke="#000000" stroke-width="1.30667" stroke-linecap="butt" stroke-linejoin="miter" stroke-miterlimit="4" stroke-opacity="1" fill="#9FFFAD" fill-rule="nonzero" fill-opacity="1" transform="matrix(1.00657 0 0 1 329.929 349.567)"/><text fill="#000000" fill-opacity="1" font-family="Arial,Arial_MSFontService,sans-serif" font-style="normal" font-variant="normal" font-weight="400" font-stretch="normal" font-size="14" text-anchor="start" direction="ltr" writing-mode="lr-tb" unicode-bidi="normal" text-decoration="none" transform="matrix(1.31525 0 0 1.30667 335.33 373)">1</text><path d="M0 0 19.6 0 19.6 33.9733 0 33.9733Z" stroke="#000000" stroke-width="1.30667" stroke-linecap="butt" stroke-linejoin="miter" stroke-miterlimit="4" stroke-opacity="1" fill="#9FFFAD" fill-rule="nonzero" fill-opacity="1" transform="matrix(1.00657 0 0 1 349.658 349.567)"/><text fill="#000000" fill-opacity="1" font-family="Arial,Arial_MSFontService,sans-serif" font-style="normal" font-variant="normal" font-weight="400" font-stretch="normal" font-size="14" text-anchor="start" direction="ltr" writing-mode="lr-tb" unicode-bidi="normal" text-decoration="none" transform="matrix(1.31525 0 0 1.30667 355.059 373)">1</text><path d="M0 0 19.6 0 19.6 33.9733 0 33.9733Z" stroke="#000000" stroke-width="1.30667" stroke-linecap="butt" stroke-linejoin="miter" stroke-miterlimit="4" stroke-opacity="1" fill="#9FFFAD" fill-rule="nonzero" fill-opacity="1" transform="matrix(1.00657 0 0 1 369.386 349.567)"/><text fill="#000000" fill-opacity="1" font-family="Arial,Arial_MSFontService,sans-serif" font-style="normal" font-variant="normal" font-weight="400" font-stretch="normal" font-size="14" text-anchor="start" direction="ltr" writing-mode="lr-tb" unicode-bidi="normal" text-decoration="none" transform="matrix(1.31525 0 0 1.30667 374.788 373)">1</text><path d="M0 0 19.6 0 19.6 33.9733 0 33.9733Z" stroke="#000000" stroke-width="1.30667" stroke-linecap="butt" stroke-linejoin="miter" stroke-miterlimit="4" stroke-opacity="1" fill="#9FFFAD" fill-rule="nonzero" fill-opacity="1" transform="matrix(1.00657 0 0 1 389.115 349.567)"/><text fill="#000000" fill-opacity="1" font-family="Arial,Arial_MSFontService,sans-serif" font-style="normal" font-variant="normal" font-weight="400" font-stretch="normal" font-size="14" text-anchor="start" direction="ltr" writing-mode="lr-tb" unicode-bidi="normal" text-decoration="none" transform="matrix(1.31525 0 0 1.30667 394.517 373)">1</text><path d="M0 0 19.6 0 19.6 33.9733 0 33.9733Z" stroke="#000000" stroke-width="1.30667" stroke-linecap="butt" stroke-linejoin="miter" stroke-miterlimit="4" stroke-opacity="1" fill="#9FFFAD" fill-rule="nonzero" fill-opacity="1" transform="matrix(1.00657 0 0 1 408.844 349.567)"/><text fill="#000000" fill-opacity="1" font-family="Arial,Arial_MSFontService,sans-serif" font-style="normal" font-variant="normal" font-weight="400" font-stretch="normal" font-size="14" text-anchor="start" direction="ltr" writing-mode="lr-tb" unicode-bidi="normal" text-decoration="none" transform="matrix(1.31525 0 0 1.30667 414.246 373)">0</text><path d="M0 0 19.6 0 19.6 33.9733 0 33.9733Z" stroke="#000000" stroke-width="1.30667" stroke-linecap="butt" stroke-linejoin="miter" stroke-miterlimit="4" stroke-opacity="1" fill="#9FFFAD" fill-rule="nonzero" fill-opacity="1" transform="matrix(1.00657 0 0 1 428.573 349.567)"/><text fill="#000000" fill-opacity="1" font-family="Arial,Arial_MSFontService,sans-serif" font-style="normal" font-variant="normal" font-weight="400" font-stretch="normal" font-size="14" text-anchor="start" direction="ltr" writing-mode="lr-tb" unicode-bidi="normal" text-decoration="none" transform="matrix(1.31525 0 0 1.30667 433.975 373)">0</text><path d="M0 0 19.6 0 19.6 33.9733 0 33.9733Z" stroke="#000000" stroke-width="1.30667" stroke-linecap="butt" stroke-linejoin="miter" stroke-miterlimit="4" stroke-opacity="1" fill="#FFAEAD" fill-rule="nonzero" fill-opacity="1" transform="matrix(1.00657 0 0 1 448.302 349.567)"/><text fill="#000000" fill-opacity="1" font-family="Arial,Arial_MSFontService,sans-serif" font-style="normal" font-variant="normal" font-weight="400" font-stretch="normal" font-size="14" text-anchor="start" direction="ltr" writing-mode="lr-tb" unicode-bidi="normal" text-decoration="none" transform="matrix(1.31525 0 0 1.30667 453.703 373)">0</text><path d="M0 0 19.6 0 19.6 33.9733 0 33.9733Z" stroke="#000000" stroke-width="1.30667" stroke-linecap="butt" stroke-linejoin="miter" stroke-miterlimit="4" stroke-opacity="1" fill="#FFAEAD" fill-rule="nonzero" fill-opacity="1" transform="matrix(1.00657 0 0 1 468.031 349.567)"/><text fill="#000000" fill-opacity="1" font-family="Arial,Arial_MSFontService,sans-serif" font-style="normal" font-variant="normal" font-weight="400" font-stretch="normal" font-size="14" text-anchor="start" direction="ltr" writing-mode="lr-tb" unicode-bidi="normal" text-decoration="none" transform="matrix(1.31525 0 0 1.30667 473.432 373)">1</text><path d="M0 0 19.6 0 19.6 33.9733 0 33.9733Z" stroke="#000000" stroke-width="1.30667" stroke-linecap="butt" stroke-linejoin="miter" stroke-miterlimit="4" stroke-opacity="1" fill="#FFAEAD" fill-rule="nonzero" fill-opacity="1" transform="matrix(1.00657 0 0 1 487.759 349.567)"/><text fill="#000000" fill-opacity="1" font-family="Arial,Arial_MSFontService,sans-serif" font-style="normal" font-variant="normal" font-weight="400" font-stretch="normal" font-size="14" text-anchor="start" direction="ltr" writing-mode="lr-tb" unicode-bidi="normal" text-decoration="none" transform="matrix(1.31525 0 0 1.30667 493.161 373)">0</text><path d="M0 0 19.6 0 19.6 33.9733 0 33.9733Z" stroke="#000000" stroke-width="1.30667" stroke-linecap="butt" stroke-linejoin="miter" stroke-miterlimit="4" stroke-opacity="1" fill="#FFAEAD" fill-rule="nonzero" fill-opacity="1" transform="matrix(1.00657 0 0 1 507.488 349.567)"/><text fill="#000000" fill-opacity="1" font-family="Arial,Arial_MSFontService,sans-serif" font-style="normal" font-variant="normal" font-weight="400" font-stretch="normal" font-size="14" text-anchor="start" direction="ltr" writing-mode="lr-tb" unicode-bidi="normal" text-decoration="none" transform="matrix(1.31525 0 0 1.30667 512.89 373)">0</text><path d="M0 0 19.6 0 19.6 33.9733 0 33.9733Z" stroke="#000000" stroke-width="1.30667" stroke-linecap="butt" stroke-linejoin="miter" stroke-miterlimit="4" stroke-opacity="1" fill="#FFAEAD" fill-rule="nonzero" fill-opacity="1" transform="matrix(1.00657 0 0 1 527.217 349.567)"/><text fill="#000000" fill-opacity="1" font-family="Arial,Arial_MSFontService,sans-serif" font-style="normal" font-variant="normal" font-weight="400" font-stretch="normal" font-size="14" text-anchor="start" direction="ltr" writing-mode="lr-tb" unicode-bidi="normal" text-decoration="none" transform="matrix(1.31525 0 0 1.30667 532.619 373)">0</text><path d="M0 0 19.6 0 19.6 33.9733 0 33.9733Z" stroke="#000000" stroke-width="1.30667" stroke-linecap="butt" stroke-linejoin="miter" stroke-miterlimit="4" stroke-opacity="1" fill="#FFAEAD" fill-rule="nonzero" fill-opacity="1" transform="matrix(1.00657 0 0 1 546.946 349.567)"/><text fill="#000000" fill-opacity="1" font-family="Arial,Arial_MSFontService,sans-serif" font-style="normal" font-variant="normal" font-weight="400" font-stretch="normal" font-size="14" text-anchor="start" direction="ltr" writing-mode="lr-tb" unicode-bidi="normal" text-decoration="none" transform="matrix(1.31525 0 0 1.30667 552.347 373)">0</text><path d="M0 0 19.6 0 19.6 33.9733 0 33.9733Z" stroke="#000000" stroke-width="1.30667" stroke-linecap="butt" stroke-linejoin="miter" stroke-miterlimit="4" stroke-opacity="1" fill="#FFAEAD" fill-rule="nonzero" fill-opacity="1" transform="matrix(1.00657 0 0 1 566.675 349.567)"/><text fill="#000000" fill-opacity="1" font-family="Arial,Arial_MSFontService,sans-serif" font-style="normal" font-variant="normal" font-weight="400" font-stretch="normal" font-size="14" text-anchor="start" direction="ltr" writing-mode="lr-tb" unicode-bidi="normal" text-decoration="none" transform="matrix(1.31525 0 0 1.30667 572.076 373)">0</text><path d="M0 0 19.6 0 19.6 33.9733 0 33.9733Z" stroke="#000000" stroke-width="1.30667" stroke-linecap="butt" stroke-linejoin="miter" stroke-miterlimit="4" stroke-opacity="1" fill="#FFAEAD" fill-rule="nonzero" fill-opacity="1" transform="matrix(1.00657 0 0 1 586.403 349.567)"/><text fill="#000000" fill-opacity="1" font-family="Arial,Arial_MSFontService,sans-serif" font-style="normal" font-variant="normal" font-weight="400" font-stretch="normal" font-size="14" text-anchor="start" direction="ltr" writing-mode="lr-tb" unicode-bidi="normal" text-decoration="none" transform="matrix(1.31525 0 0 1.30667 591.805 373)">0</text><path d="M0 0 19.6 0 19.6 33.9733 0 33.9733Z" stroke="#000000" stroke-width="1.30667" stroke-linecap="butt" stroke-linejoin="miter" stroke-miterlimit="4" stroke-opacity="1" fill="#FFAEAD" fill-rule="nonzero" fill-opacity="1" transform="matrix(1.00657 0 0 1 606.132 349.567)"/><text fill="#000000" fill-opacity="1" font-family="Arial,Arial_MSFontService,sans-serif" font-style="normal" font-variant="normal" font-weight="400" font-stretch="normal" font-size="14" text-anchor="start" direction="ltr" writing-mode="lr-tb" unicode-bidi="normal" text-decoration="none" transform="matrix(1.31525 0 0 1.30667 611.534 373)">0</text><path d="M0 0 19.6 0 19.6 33.9733 0 33.9733Z" stroke="#000000" stroke-width="1.30667" stroke-linecap="butt" stroke-linejoin="miter" stroke-miterlimit="4" stroke-opacity="1" fill="#FFAEAD" fill-rule="nonzero" fill-opacity="1" transform="matrix(1.00657 0 0 1 625.861 349.567)"/><text fill="#000000" fill-opacity="1" font-family="Arial,Arial_MSFontService,sans-serif" font-style="normal" font-variant="normal" font-weight="400" font-stretch="normal" font-size="14" text-anchor="start" direction="ltr" writing-mode="lr-tb" unicode-bidi="normal" text-decoration="none" transform="matrix(1.31525 0 0 1.30667 631.263 373)">0</text><path d="M0 0 19.6 0 19.6 33.9733 0 33.9733Z" stroke="#000000" stroke-width="1.30667" stroke-linecap="butt" stroke-linejoin="miter" stroke-miterlimit="4" stroke-opacity="1" fill="#FFAEAD" fill-rule="nonzero" fill-opacity="1" transform="matrix(1.00657 0 0 1 645.59 349.567)"/><text fill="#000000" fill-opacity="1" font-family="Arial,Arial_MSFontService,sans-serif" font-style="normal" font-variant="normal" font-weight="400" font-stretch="normal" font-size="14" text-anchor="start" direction="ltr" writing-mode="lr-tb" unicode-bidi="normal" text-decoration="none" transform="matrix(1.31525 0 0 1.30667 650.992 373)">0</text><path d="M0 0 19.6 0 19.6 33.9733 0 33.9733Z" stroke="#000000" stroke-width="1.30667" stroke-linecap="butt" stroke-linejoin="miter" stroke-miterlimit="4" stroke-opacity="1" fill="#FFAEAD" fill-rule="nonzero" fill-opacity="1" transform="matrix(1.00657 0 0 1 665.319 349.567)"/><text fill="#000000" fill-opacity="1" font-family="Arial,Arial_MSFontService,sans-serif" font-style="normal" font-variant="normal" font-weight="400" font-stretch="normal" font-size="14" text-anchor="start" direction="ltr" writing-mode="lr-tb" unicode-bidi="normal" text-decoration="none" transform="matrix(1.31525 0 0 1.30667 670.72 373)">0</text><path d="M0 0 19.6 0 19.6 33.9733 0 33.9733Z" stroke="#000000" stroke-width="1.30667" stroke-linecap="butt" stroke-linejoin="miter" stroke-miterlimit="4" stroke-opacity="1" fill="#FFAEAD" fill-rule="nonzero" fill-opacity="1" transform="matrix(1.00657 0 0 1 685.047 349.567)"/><text fill="#000000" fill-opacity="1" font-family="Arial,Arial_MSFontService,sans-serif" font-style="normal" font-variant="normal" font-weight="400" font-stretch="normal" font-size="14" text-anchor="start" direction="ltr" writing-mode="lr-tb" unicode-bidi="normal" text-decoration="none" transform="matrix(1.31525 0 0 1.30667 690.449 373)">0</text><path d="M0 0 19.6 0 19.6 33.9733 0 33.9733Z" stroke="#000000" stroke-width="1.30667" stroke-linecap="butt" stroke-linejoin="miter" stroke-miterlimit="4" stroke-opacity="1" fill="#FFAEAD" fill-rule="nonzero" fill-opacity="1" transform="matrix(1.00657 0 0 1 704.776 349.567)"/><text fill="#000000" fill-opacity="1" font-family="Arial,Arial_MSFontService,sans-serif" font-style="normal" font-variant="normal" font-weight="400" font-stretch="normal" font-size="14" text-anchor="start" direction="ltr" writing-mode="lr-tb" unicode-bidi="normal" text-decoration="none" transform="matrix(1.31525 0 0 1.30667 710.178 373)">0</text><path d="M0 0 19.6 0 19.6 33.9733 0 33.9733Z" stroke="#000000" stroke-width="1.30667" stroke-linecap="butt" stroke-linejoin="miter" stroke-miterlimit="4" stroke-opacity="1" fill="#FFAEAD" fill-rule="nonzero" fill-opacity="1" transform="matrix(1.00657 0 0 1 724.505 349.567)"/><text fill="#000000" fill-opacity="1" font-family="Arial,Arial_MSFontService,sans-serif" font-style="normal" font-variant="normal" font-weight="400" font-stretch="normal" font-size="14" text-anchor="start" direction="ltr" writing-mode="lr-tb" unicode-bidi="normal" text-decoration="none" transform="matrix(1.31525 0 0 1.30667 729.907 373)">0</text><path d="M0 0 19.6 0 19.6 33.9733 0 33.9733Z" stroke="#000000" stroke-width="1.30667" stroke-linecap="butt" stroke-linejoin="miter" stroke-miterlimit="4" stroke-opacity="1" fill="#FFAEAD" fill-rule="nonzero" fill-opacity="1" transform="matrix(1.00657 0 0 1 744.234 349.567)"/><text fill="#000000" fill-opacity="1" font-family="Arial,Arial_MSFontService,sans-serif" font-style="normal" font-variant="normal" font-weight="400" font-stretch="normal" font-size="14" text-anchor="start" direction="ltr" writing-mode="lr-tb" unicode-bidi="normal" text-decoration="none" transform="matrix(1.31525 0 0 1.30667 749.636 373)">0</text><path d="M0 0 19.6 0 19.6 33.9733 0 33.9733Z" stroke="#000000" stroke-width="1.30667" stroke-linecap="butt" stroke-linejoin="miter" stroke-miterlimit="4" stroke-opacity="1" fill="#FFAEAD" fill-rule="nonzero" fill-opacity="1" transform="matrix(1.00657 0 0 1 763.963 349.567)"/><text fill="#000000" fill-opacity="1" font-family="Arial,Arial_MSFontService,sans-serif" font-style="normal" font-variant="normal" font-weight="400" font-stretch="normal" font-size="14" text-anchor="start" direction="ltr" writing-mode="lr-tb" unicode-bidi="normal" text-decoration="none" transform="matrix(1.31525 0 0 1.30667 769.364 373)">0</text><path d="M0 0 19.6 0 19.6 33.9733 0 33.9733Z" stroke="#000000" stroke-width="1.30667" stroke-linecap="butt" stroke-linejoin="miter" stroke-miterlimit="4" stroke-opacity="1" fill="#FFAEAD" fill-rule="nonzero" fill-opacity="1" transform="matrix(1.00657 0 0 1 783.692 349.567)"/><text fill="#000000" fill-opacity="1" font-family="Arial,Arial_MSFontService,sans-serif" font-style="normal" font-variant="normal" font-weight="400" font-stretch="normal" font-size="14" text-anchor="start" direction="ltr" writing-mode="lr-tb" unicode-bidi="normal" text-decoration="none" transform="matrix(1.31525 0 0 1.30667 789.093 373)">0</text><path d="M0 0 19.6 0 19.6 33.9733 0 33.9733Z" stroke="#000000" stroke-width="1.30667" stroke-linecap="butt" stroke-linejoin="miter" stroke-miterlimit="4" stroke-opacity="1" fill="#FFAEAD" fill-rule="nonzero" fill-opacity="1" transform="matrix(1.00657 0 0 1 803.42 349.567)"/><text fill="#000000" fill-opacity="1" font-family="Arial,Arial_MSFontService,sans-serif" font-style="normal" font-variant="normal" font-weight="400" font-stretch="normal" font-size="14" text-anchor="start" direction="ltr" writing-mode="lr-tb" unicode-bidi="normal" text-decoration="none" transform="matrix(1.31525 0 0 1.30667 808.822 373)">0</text><path d="M0 0 19.6 0 19.6 33.9733 0 33.9733Z" stroke="#000000" stroke-width="1.30667" stroke-linecap="butt" stroke-linejoin="miter" stroke-miterlimit="4" stroke-opacity="1" fill="#FFAEAD" fill-rule="nonzero" fill-opacity="1" transform="matrix(1.00657 0 0 1 823.149 349.567)"/><text fill="#000000" fill-opacity="1" font-family="Arial,Arial_MSFontService,sans-serif" font-style="normal" font-variant="normal" font-weight="400" font-stretch="normal" font-size="14" text-anchor="start" direction="ltr" writing-mode="lr-tb" unicode-bidi="normal" text-decoration="none" transform="matrix(1.31525 0 0 1.30667 828.551 373)">0</text><path d="M0 0 19.6 0 19.6 33.9733 0 33.9733Z" stroke="#000000" stroke-width="1.30667" stroke-linecap="butt" stroke-linejoin="miter" stroke-miterlimit="4" stroke-opacity="1" fill="#FFAEAD" fill-rule="nonzero" fill-opacity="1" transform="matrix(1.00657 0 0 1 842.878 349.567)"/><text fill="#000000" fill-opacity="1" font-family="Arial,Arial_MSFontService,sans-serif" font-style="normal" font-variant="normal" font-weight="400" font-stretch="normal" font-size="14" text-anchor="start" direction="ltr" writing-mode="lr-tb" unicode-bidi="normal" text-decoration="none" transform="matrix(1.31525 0 0 1.30667 848.28 373)">0</text><path d="M0 0 19.6 0 19.6 33.9733 0 33.9733Z" stroke="#000000" stroke-width="1.30667" stroke-linecap="butt" stroke-linejoin="miter" stroke-miterlimit="4" stroke-opacity="1" fill="#FFAEAD" fill-rule="nonzero" fill-opacity="1" transform="matrix(1.00657 0 0 1 862.607 349.567)"/><text fill="#000000" fill-opacity="1" font-family="Arial,Arial_MSFontService,sans-serif" font-style="normal" font-variant="normal" font-weight="400" font-stretch="normal" font-size="14" text-anchor="start" direction="ltr" writing-mode="lr-tb" unicode-bidi="normal" text-decoration="none" transform="matrix(1.31525 0 0 1.30667 868.008 373)">0</text><path d="M0 0 19.6 0 19.6 33.9733 0 33.9733Z" stroke="#000000" stroke-width="1.30667" stroke-linecap="butt" stroke-linejoin="miter" stroke-miterlimit="4" stroke-opacity="1" fill="#FFAEAD" fill-rule="nonzero" fill-opacity="1" transform="matrix(1.00657 0 0 1 882.336 349.567)"/><text fill="#000000" fill-opacity="1" font-family="Arial,Arial_MSFontService,sans-serif" font-style="normal" font-variant="normal" font-weight="400" font-stretch="normal" font-size="14" text-anchor="start" direction="ltr" writing-mode="lr-tb" unicode-bidi="normal" text-decoration="none" transform="matrix(1.31525 0 0 1.30667 887.737 373)">0</text><path d="M0 0 627.2 0 627.2 33.9733 0 33.9733Z" stroke="#000000" stroke-width="2.61333" stroke-linecap="butt" stroke-linejoin="miter" stroke-miterlimit="4" stroke-opacity="1" fill="none" fill-rule="nonzero" transform="matrix(1.00657 0 0 1 270.742 349.567)"/><path d="M19.6 0 19.6 33.9733M176.4 0 176.4 33.9733" stroke="#000000" stroke-width="2.61333" stroke-linecap="butt" stroke-linejoin="miter" stroke-miterlimit="4" stroke-opacity="1" fill="none" fill-rule="nonzero" transform="matrix(1.00657 0 0 1 270.742 349.567)"/><path d="M9.8-4.57333 9.8-16.9867" stroke="#008080" stroke-width="1.30667" stroke-linecap="butt" stroke-linejoin="miter" stroke-miterlimit="4" stroke-opacity="1" fill="none" fill-rule="nonzero" transform="matrix(1.00657 0 0 1 270.742 349.567)"/><path d="M20.9067-4.57333 20.9067-16.9867 175.093-16.9867 175.093-4.57333" stroke="#008000" stroke-width="1.30667" stroke-linecap="butt" stroke-linejoin="miter" stroke-miterlimit="4" stroke-opacity="1" fill="none" fill-rule="nonzero" transform="matrix(1.00657 0 0 1 270.742 349.567)"/><path d="M177.707-4.57333 177.707-16.9867 625.893-16.9867 625.893-4.57333" stroke="#800000" stroke-width="1.30667" stroke-linecap="butt" stroke-linejoin="miter" stroke-miterlimit="4" stroke-opacity="1" fill="none" fill-rule="nonzero" transform="matrix(1.00657 0 0 1 270.742 349.567)"/><text fill="#000000" fill-opacity="1" font-family="Arial,Arial_MSFontService,sans-serif" font-style="normal" font-variant="normal" font-weight="400" font-stretch="normal" font-size="14" text-anchor="start" direction="ltr" writing-mode="lr-tb" unicode-bidi="normal" text-decoration="none" transform="matrix(1.31525 0 0 1.30667 253.925 326)">sign</text><text fill="#000000" fill-opacity="1" font-family="Arial,Arial_MSFontService,sans-serif" font-style="normal" font-variant="normal" font-weight="400" font-stretch="normal" font-size="14" text-anchor="start" direction="ltr" writing-mode="lr-tb" unicode-bidi="normal" text-decoration="none" transform="matrix(1.31525 0 0 1.30667 287.705 326)"> </text><text fill="#000000" fill-opacity="1" font-family="Arial,Arial_MSFontService,sans-serif" font-style="normal" font-variant="normal" font-weight="400" font-stretch="normal" font-size="14" text-anchor="start" direction="ltr" writing-mode="lr-tb" unicode-bidi="normal" text-decoration="none" transform="matrix(1.31525 0 0 1.30667 298.25 326)">exponent (8 bits)</text><text fill="#000000" fill-opacity="1" font-family="Arial,Arial_MSFontService,sans-serif" font-style="normal" font-variant="normal" font-weight="400" font-stretch="normal" font-size="14" text-anchor="start" direction="ltr" writing-mode="lr-tb" unicode-bidi="normal" text-decoration="none" transform="matrix(1.31525 0 0 1.30667 435.407 326)"> </text><text fill="#000000" fill-opacity="1" font-family="Arial,Arial_MSFontService,sans-serif" font-style="normal" font-variant="normal" font-weight="400" font-stretch="normal" font-size="14" text-anchor="start" direction="ltr" writing-mode="lr-tb" unicode-bidi="normal" text-decoration="none" transform="matrix(1.31525 0 0 1.30667 608.518 326)">fraction (23 bits)</text><path d="M12.4133 0C12.4133 1.4433 11.2433 2.61333 9.8 2.61333 8.3567 2.61333 7.18667 1.4433 7.18667 4.68781e-16 7.18667-1.4433 8.3567-2.61333 9.8-2.61333 11.2433-2.61333 12.4133-1.4433 12.4133 0Z" fill="#000000" fill-rule="nonzero" fill-opacity="1" transform="matrix(1.00657 0 0 1 270.742 389.42)"/><path d="M32.0133 0C32.0133 1.4433 30.8433 2.61333 29.4 2.61333 27.9567 2.61333 26.7867 1.4433 26.7867 4.68781e-16 26.7867-1.4433 27.9567-2.61333 29.4-2.61333 30.8433-2.61333 32.0133-1.4433 32.0133 0Z" fill="#000000" fill-rule="nonzero" fill-opacity="1" transform="matrix(1.00657 0 0 1 270.742 389.42)"/><path d="M169.213 0C169.213 1.4433 168.043 2.61333 166.6 2.61333 165.157 2.61333 163.987 1.4433 163.987 4.68781e-16 163.987-1.4433 165.157-2.61333 166.6-2.61333 168.043-2.61333 169.213-1.4433 169.213 0Z" fill="#000000" fill-rule="nonzero" fill-opacity="1" transform="matrix(1.00657 0 0 1 270.742 389.42)"/><path d="M188.813 0C188.813 1.4433 187.643 2.61333 186.2 2.61333 184.757 2.61333 183.587 1.4433 183.587 4.68781e-16 183.587-1.4433 184.757-2.61333 186.2-2.61333 187.643-2.61333 188.813-1.4433 188.813 0Z" fill="#000000" fill-rule="nonzero" fill-opacity="1" transform="matrix(1.00657 0 0 1 270.742 389.42)"/><path d="M620.013 0C620.013 1.4433 618.843 2.61333 617.4 2.61333 615.957 2.61333 614.787 1.4433 614.787 4.68781e-16 614.787-1.4433 615.957-2.61333 617.4-2.61333 618.843-2.61333 620.013-1.4433 620.013 0Z" fill="#000000" fill-rule="nonzero" fill-opacity="1" transform="matrix(1.00657 0 0 1 270.742 389.42)"/><text fill="#000000" fill-opacity="1" font-family="Arial,Arial_MSFontService,sans-serif" font-style="normal" font-variant="normal" font-weight="400" font-stretch="normal" font-size="14" text-anchor="start" direction="ltr" writing-mode="lr-tb" unicode-bidi="normal" text-decoration="none" transform="matrix(1.31525 0 0 1.30667 265.835 409)">31</text><text fill="#000000" fill-opacity="1" font-family="Arial,Arial_MSFontService,sans-serif" font-style="normal" font-variant="normal" font-weight="400" font-stretch="normal" font-size="14" text-anchor="start" direction="ltr" writing-mode="lr-tb" unicode-bidi="normal" text-decoration="none" transform="matrix(1.31525 0 0 1.30667 286.317 409)"> </text><text fill="#000000" fill-opacity="1" font-family="Arial,Arial_MSFontService,sans-serif" font-style="normal" font-variant="normal" font-weight="400" font-stretch="normal" font-size="14" text-anchor="start" direction="ltr" writing-mode="lr-tb" unicode-bidi="normal" text-decoration="none" transform="matrix(1.31525 0 0 1.30667 293.456 409)">30</text><text fill="#000000" fill-opacity="1" font-family="Arial,Arial_MSFontService,sans-serif" font-style="normal" font-variant="normal" font-weight="400" font-stretch="normal" font-size="14" text-anchor="start" direction="ltr" writing-mode="lr-tb" unicode-bidi="normal" text-decoration="none" transform="matrix(1.31525 0 0 1.30667 313.937 409)"> </text><text fill="#000000" fill-opacity="1" font-family="Arial,Arial_MSFontService,sans-serif" font-style="normal" font-variant="normal" font-weight="400" font-stretch="normal" font-size="14" text-anchor="start" direction="ltr" writing-mode="lr-tb" unicode-bidi="normal" text-decoration="none" transform="matrix(1.31525 0 0 1.30667 423.666 409)">23</text><text fill="#000000" fill-opacity="1" font-family="Arial,Arial_MSFontService,sans-serif" font-style="normal" font-variant="normal" font-weight="400" font-stretch="normal" font-size="14" text-anchor="start" direction="ltr" writing-mode="lr-tb" unicode-bidi="normal" text-decoration="none" transform="matrix(1.31525 0 0 1.30667 444.147 409)"> </text><text fill="#000000" fill-opacity="1" font-family="Arial,Arial_MSFontService,sans-serif" font-style="normal" font-variant="normal" font-weight="400" font-stretch="normal" font-size="14" text-anchor="start" direction="ltr" writing-mode="lr-tb" unicode-bidi="normal" text-decoration="none" transform="matrix(1.31525 0 0 1.30667 449.971 409)">22</text><text fill="#000000" fill-opacity="1" font-family="Arial,Arial_MSFontService,sans-serif" font-style="normal" font-variant="normal" font-weight="400" font-stretch="normal" font-size="14" text-anchor="start" direction="ltr" writing-mode="lr-tb" unicode-bidi="normal" text-decoration="none" transform="matrix(1.31525 0 0 1.30667 470.452 409)"> </text><text fill="#000000" fill-opacity="1" font-family="Arial,Arial_MSFontService,sans-serif" font-style="normal" font-variant="normal" font-weight="400" font-stretch="normal" font-size="14" text-anchor="start" direction="ltr" writing-mode="lr-tb" unicode-bidi="normal" text-decoration="none" transform="matrix(1.31525 0 0 1.30667 887.08 409)">0</text><text fill="#000000" fill-opacity="1" font-family="Arial,Arial_MSFontService,sans-serif" font-style="normal" font-variant="normal" font-weight="400" font-stretch="normal" font-size="14" text-anchor="start" direction="ltr" writing-mode="lr-tb" unicode-bidi="normal" text-decoration="none" transform="matrix(1.31525 0 0 1.30667 549.926 408)">(bit index)</text><text fill="#000000" fill-opacity="1" font-family="Arial,Arial_MSFontService,sans-serif" font-style="normal" font-variant="normal" font-weight="400" font-stretch="normal" font-size="18.7" text-anchor="start" direction="ltr" writing-mode="lr-tb" unicode-bidi="normal" text-decoration="none" transform="matrix(1.31525 0 0 1.30667 914.888 375)">= 0.15625</text></g></g></svg>